<mxfile host="Electron" agent="Mozilla/5.0 (Windows NT 10.0; Win64; x64) AppleWebKit/537.36 (KHTML, like Gecko) draw.io/24.7.8 Chrome/128.0.6613.36 Electron/32.0.1 Safari/537.36" version="24.7.8">
  <diagram name="Página-1" id="ntY0iY2HkZGS6ljB9kMM">
    <mxGraphModel dx="1185" dy="688" grid="1" gridSize="10" guides="1" tooltips="1" connect="1" arrows="1" fold="1" page="1" pageScale="1" pageWidth="827" pageHeight="1169" math="0" shadow="0">
      <root>
        <mxCell id="0" />
        <mxCell id="1" parent="0" />
        <mxCell id="X1r9gVKh5es3ubIQ2fsq-2" value="Vendedor" style="swimlane;html=1;startSize=20;fontStyle=0;collapsible=0;horizontal=0;swimlaneLine=1;swimlaneFillColor=default;strokeWidth=2;whiteSpace=wrap;" vertex="1" parent="1">
          <mxGeometry x="80" y="330" width="840" height="110" as="geometry" />
        </mxCell>
        <mxCell id="X1r9gVKh5es3ubIQ2fsq-32" style="edgeStyle=orthogonalEdgeStyle;rounded=0;orthogonalLoop=1;jettySize=auto;html=1;" edge="1" parent="X1r9gVKh5es3ubIQ2fsq-2" source="X1r9gVKh5es3ubIQ2fsq-64" target="X1r9gVKh5es3ubIQ2fsq-31">
          <mxGeometry relative="1" as="geometry">
            <mxPoint x="265" y="55" as="sourcePoint" />
          </mxGeometry>
        </mxCell>
        <mxCell id="X1r9gVKh5es3ubIQ2fsq-31" value="Notifica el precio" style="points=[[0.145,0.145,0],[0.5,0,0],[0.855,0.145,0],[1,0.5,0],[0.855,0.855,0],[0.5,1,0],[0.145,0.855,0],[0,0.5,0]];shape=mxgraph.bpmn.event;html=1;verticalLabelPosition=bottom;labelBackgroundColor=#ffffff;verticalAlign=top;align=center;perimeter=ellipsePerimeter;outlineConnect=0;aspect=fixed;outline=throwing;symbol=message;" vertex="1" parent="X1r9gVKh5es3ubIQ2fsq-2">
          <mxGeometry x="340.02" y="37.5" width="35" height="35" as="geometry" />
        </mxCell>
        <mxCell id="X1r9gVKh5es3ubIQ2fsq-64" value="&lt;p style=&quot;line-height: 96%;&quot;&gt;&lt;span style=&quot;font-size: 11px;&quot;&gt;Recibe la consulta y busca el precio manualmente&lt;/span&gt;&lt;/p&gt;" style="points=[[0.25,0,0],[0.5,0,0],[0.75,0,0],[1,0.25,0],[1,0.5,0],[1,0.75,0],[0.75,1,0],[0.5,1,0],[0.25,1,0],[0,0.75,0],[0,0.5,0],[0,0.25,0]];shape=mxgraph.bpmn.task;whiteSpace=wrap;rectStyle=rounded;size=10;html=1;container=1;expand=0;collapsible=0;taskMarker=receive;isLoopSub=1;" vertex="1" parent="X1r9gVKh5es3ubIQ2fsq-2">
          <mxGeometry x="160" y="17.5" width="110" height="75" as="geometry" />
        </mxCell>
        <mxCell id="X1r9gVKh5es3ubIQ2fsq-5" value="Cliente" style="swimlane;html=1;startSize=20;fontStyle=0;collapsible=0;horizontal=0;swimlaneLine=1;swimlaneFillColor=default;strokeWidth=2;whiteSpace=wrap;fillColor=default;" vertex="1" parent="1">
          <mxGeometry x="80" y="100" width="840" height="190" as="geometry" />
        </mxCell>
        <mxCell id="X1r9gVKh5es3ubIQ2fsq-9" style="edgeStyle=orthogonalEdgeStyle;rounded=0;orthogonalLoop=1;jettySize=auto;html=1;" edge="1" parent="X1r9gVKh5es3ubIQ2fsq-5" source="X1r9gVKh5es3ubIQ2fsq-7" target="X1r9gVKh5es3ubIQ2fsq-28">
          <mxGeometry relative="1" as="geometry">
            <mxPoint x="160" y="98.12000000000002" as="targetPoint" />
          </mxGeometry>
        </mxCell>
        <mxCell id="X1r9gVKh5es3ubIQ2fsq-7" value="" style="points=[[0.145,0.145,0],[0.5,0,0],[0.855,0.145,0],[1,0.5,0],[0.855,0.855,0],[0.5,1,0],[0.145,0.855,0],[0,0.5,0]];shape=mxgraph.bpmn.event;html=1;verticalLabelPosition=bottom;labelBackgroundColor=#ffffff;verticalAlign=top;align=center;perimeter=ellipsePerimeter;outlineConnect=0;aspect=fixed;outline=standard;symbol=general;" vertex="1" parent="X1r9gVKh5es3ubIQ2fsq-5">
          <mxGeometry x="60" y="75.62999999999998" width="45.02" height="45.02" as="geometry" />
        </mxCell>
        <mxCell id="X1r9gVKh5es3ubIQ2fsq-35" style="edgeStyle=orthogonalEdgeStyle;rounded=0;orthogonalLoop=1;jettySize=auto;html=1;" edge="1" parent="X1r9gVKh5es3ubIQ2fsq-5" source="X1r9gVKh5es3ubIQ2fsq-28" target="X1r9gVKh5es3ubIQ2fsq-33">
          <mxGeometry relative="1" as="geometry" />
        </mxCell>
        <mxCell id="X1r9gVKh5es3ubIQ2fsq-28" value="&lt;p style=&quot;line-height: 96%;&quot;&gt;Ve un producto y consulta por el precio&lt;/p&gt;" style="points=[[0.25,0,0],[0.5,0,0],[0.75,0,0],[1,0.25,0],[1,0.5,0],[1,0.75,0],[0.75,1,0],[0.5,1,0],[0.25,1,0],[0,0.75,0],[0,0.5,0],[0,0.25,0]];shape=mxgraph.bpmn.task;whiteSpace=wrap;rectStyle=rounded;size=10;html=1;container=1;expand=0;collapsible=0;taskMarker=send;" vertex="1" parent="X1r9gVKh5es3ubIQ2fsq-5">
          <mxGeometry x="160" y="62.98" width="110" height="70.32" as="geometry" />
        </mxCell>
        <mxCell id="X1r9gVKh5es3ubIQ2fsq-40" style="edgeStyle=orthogonalEdgeStyle;rounded=0;orthogonalLoop=1;jettySize=auto;html=1;" edge="1" parent="X1r9gVKh5es3ubIQ2fsq-5" source="X1r9gVKh5es3ubIQ2fsq-33" target="X1r9gVKh5es3ubIQ2fsq-39">
          <mxGeometry relative="1" as="geometry" />
        </mxCell>
        <mxCell id="X1r9gVKh5es3ubIQ2fsq-33" value="Recibe el precio" style="points=[[0.145,0.145,0],[0.5,0,0],[0.855,0.145,0],[1,0.5,0],[0.855,0.855,0],[0.5,1,0],[0.145,0.855,0],[0,0.5,0]];shape=mxgraph.bpmn.event;html=1;verticalLabelPosition=bottom;labelBackgroundColor=#ffffff;verticalAlign=top;align=center;perimeter=ellipsePerimeter;outlineConnect=0;aspect=fixed;outline=boundInt;symbol=message;" vertex="1" parent="X1r9gVKh5es3ubIQ2fsq-5">
          <mxGeometry x="340" y="80.61" width="35.02" height="35.02" as="geometry" />
        </mxCell>
        <mxCell id="X1r9gVKh5es3ubIQ2fsq-44" style="edgeStyle=orthogonalEdgeStyle;rounded=0;orthogonalLoop=1;jettySize=auto;html=1;" edge="1" parent="X1r9gVKh5es3ubIQ2fsq-5" source="X1r9gVKh5es3ubIQ2fsq-39" target="X1r9gVKh5es3ubIQ2fsq-42">
          <mxGeometry relative="1" as="geometry">
            <mxPoint x="697" y="183.12" as="targetPoint" />
            <Array as="points">
              <mxPoint x="530" y="98" />
              <mxPoint x="530" y="140" />
            </Array>
          </mxGeometry>
        </mxCell>
        <mxCell id="X1r9gVKh5es3ubIQ2fsq-46" value="No" style="edgeLabel;html=1;align=center;verticalAlign=middle;resizable=0;points=[];" vertex="1" connectable="0" parent="X1r9gVKh5es3ubIQ2fsq-44">
          <mxGeometry x="-0.3695" relative="1" as="geometry">
            <mxPoint y="-1" as="offset" />
          </mxGeometry>
        </mxCell>
        <mxCell id="X1r9gVKh5es3ubIQ2fsq-47" style="edgeStyle=orthogonalEdgeStyle;rounded=0;orthogonalLoop=1;jettySize=auto;html=1;" edge="1" parent="X1r9gVKh5es3ubIQ2fsq-5" source="X1r9gVKh5es3ubIQ2fsq-39" target="X1r9gVKh5es3ubIQ2fsq-57">
          <mxGeometry relative="1" as="geometry">
            <mxPoint x="640" y="18.14" as="targetPoint" />
            <Array as="points">
              <mxPoint x="530" y="98" />
              <mxPoint x="530" y="60" />
            </Array>
          </mxGeometry>
        </mxCell>
        <mxCell id="X1r9gVKh5es3ubIQ2fsq-48" value="Si" style="edgeLabel;html=1;align=center;verticalAlign=middle;resizable=0;points=[];" vertex="1" connectable="0" parent="X1r9gVKh5es3ubIQ2fsq-47">
          <mxGeometry x="-0.4945" relative="1" as="geometry">
            <mxPoint y="-11" as="offset" />
          </mxGeometry>
        </mxCell>
        <mxCell id="X1r9gVKh5es3ubIQ2fsq-39" value="¿Lo lleva?" style="points=[[0.25,0.25,0],[0.5,0,0],[0.75,0.25,0],[1,0.5,0],[0.75,0.75,0],[0.5,1,0],[0.25,0.75,0],[0,0.5,0]];shape=mxgraph.bpmn.gateway2;html=1;verticalLabelPosition=bottom;labelBackgroundColor=#ffffff;verticalAlign=top;align=center;perimeter=rhombusPerimeter;outlineConnect=0;outline=none;symbol=none;" vertex="1" parent="X1r9gVKh5es3ubIQ2fsq-5">
          <mxGeometry x="450" y="73.12000000000002" width="50" height="50" as="geometry" />
        </mxCell>
        <mxCell id="X1r9gVKh5es3ubIQ2fsq-42" value="Finaliza el proceso" style="points=[[0.145,0.145,0],[0.5,0,0],[0.855,0.145,0],[1,0.5,0],[0.855,0.855,0],[0.5,1,0],[0.145,0.855,0],[0,0.5,0]];shape=mxgraph.bpmn.event;html=1;verticalLabelPosition=bottom;labelBackgroundColor=#ffffff;verticalAlign=top;align=center;perimeter=ellipsePerimeter;outlineConnect=0;aspect=fixed;outline=end;symbol=terminate2;" vertex="1" parent="X1r9gVKh5es3ubIQ2fsq-5">
          <mxGeometry x="640" y="120.64999999999999" width="40" height="40" as="geometry" />
        </mxCell>
        <mxCell id="X1r9gVKh5es3ubIQ2fsq-59" style="edgeStyle=orthogonalEdgeStyle;rounded=0;orthogonalLoop=1;jettySize=auto;html=1;" edge="1" parent="X1r9gVKh5es3ubIQ2fsq-5" source="X1r9gVKh5es3ubIQ2fsq-57" target="X1r9gVKh5es3ubIQ2fsq-61">
          <mxGeometry relative="1" as="geometry">
            <mxPoint x="800" y="18.14" as="targetPoint" />
            <Array as="points">
              <mxPoint x="730" y="60" />
              <mxPoint x="730" y="60" />
            </Array>
          </mxGeometry>
        </mxCell>
        <mxCell id="X1r9gVKh5es3ubIQ2fsq-57" value="Efectua el pago" style="points=[[0.25,0,0],[0.5,0,0],[0.75,0,0],[1,0.25,0],[1,0.5,0],[1,0.75,0],[0.75,1,0],[0.5,1,0],[0.25,1,0],[0,0.75,0],[0,0.5,0],[0,0.25,0]];shape=mxgraph.bpmn.task;whiteSpace=wrap;rectStyle=rounded;size=10;html=1;container=1;expand=0;collapsible=0;taskMarker=abstract;isLoopSub=1;" vertex="1" parent="X1r9gVKh5es3ubIQ2fsq-5">
          <mxGeometry x="615" y="30" width="90" height="50" as="geometry" />
        </mxCell>
        <mxCell id="X1r9gVKh5es3ubIQ2fsq-61" value="Finaliza el proceso" style="points=[[0.145,0.145,0],[0.5,0,0],[0.855,0.145,0],[1,0.5,0],[0.855,0.855,0],[0.5,1,0],[0.145,0.855,0],[0,0.5,0]];shape=mxgraph.bpmn.event;html=1;verticalLabelPosition=bottom;labelBackgroundColor=#ffffff;verticalAlign=top;align=center;perimeter=ellipsePerimeter;outlineConnect=0;aspect=fixed;outline=end;symbol=terminate2;" vertex="1" parent="X1r9gVKh5es3ubIQ2fsq-5">
          <mxGeometry x="760" y="40" width="40" height="40" as="geometry" />
        </mxCell>
        <mxCell id="X1r9gVKh5es3ubIQ2fsq-30" style="edgeStyle=orthogonalEdgeStyle;rounded=0;orthogonalLoop=1;jettySize=auto;html=1;dashed=1;" edge="1" parent="1" source="X1r9gVKh5es3ubIQ2fsq-28" target="X1r9gVKh5es3ubIQ2fsq-64">
          <mxGeometry relative="1" as="geometry">
            <mxPoint x="295" y="357.5" as="targetPoint" />
            <Array as="points" />
          </mxGeometry>
        </mxCell>
        <mxCell id="X1r9gVKh5es3ubIQ2fsq-34" style="edgeStyle=orthogonalEdgeStyle;rounded=0;orthogonalLoop=1;jettySize=auto;html=1;dashed=1;" edge="1" parent="1" source="X1r9gVKh5es3ubIQ2fsq-31" target="X1r9gVKh5es3ubIQ2fsq-33">
          <mxGeometry relative="1" as="geometry" />
        </mxCell>
        <mxCell id="X1r9gVKh5es3ubIQ2fsq-65" value="&lt;b&gt;BPMN SIMPLIFICADO DEL PROCESO ACTUAL&lt;/b&gt;" style="text;html=1;align=center;verticalAlign=middle;resizable=0;points=[];autosize=1;strokeColor=none;fillColor=none;" vertex="1" parent="1">
          <mxGeometry x="355" y="70" width="290" height="30" as="geometry" />
        </mxCell>
      </root>
    </mxGraphModel>
  </diagram>
</mxfile>
